<svg xmlns="http://www.w3.org/2000/svg" xmlns:xlink="http://www.w3.org/1999/xlink" viewBox="0 0 176.6 178.9"><defs><path id="a" d="M0 0h176.6v178.9H0z"/></defs><clipPath id="b"><use xlink:href="#a" overflow="visible"/></clipPath><path clip-path="url(#b)" fill="#FFCF09" d="M133.6 4.3c-3.7-.7-7.3-1.3-10.7-1.8-5.2 16.2-14.2 38.2-29.8 61.3 3.9 5.6 8.3 11.2 13 16.8.3-.5.7-1 1-1.4l.9-1.3c7.3-10.4 17.8-26.8 26.3-46.3 2.1-4.6 4.1-9.8 6.1-15.4l3.4-9.8-10.2-2.1zM75.2 87.1c1.9 2.5 4 5 6.2 7.6l6.8 7.8 6.1-6.9s.3-.3.7-.9c2.3-2.6 4.4-5.2 6.3-7.7-4.8-5.5-9.1-10.9-13.1-16.4-3.9 5.5-8.2 11.1-13 16.5M53.7 2.6c-2.3.3-4.7.7-7.1 1.1-2.4.4-3.7.7-3.7.7l-10 1.9 2.8 8.7s.3 1 1 2.8c2.2 6.2 4.5 11.9 6.8 16.5l.8 1.6 5.4-2.5-5.4 2.6c6.6 14.2 14.5 27.9 23.4 40.7l.6.9.8 1.2.3.5c.3.5.7 1 1 1.5 4.8-5.6 9.2-11.3 13.1-16.9C68 40.8 58.9 18.8 53.7 2.6M115 1.6C95.6-1 76.2 0 61.7 1.6c4.9 14.9 13.2 34.6 26.7 55.3 13.4-20.7 21.7-40.4 26.6-55.3"/><path clip-path="url(#b)" fill="#FFF" d="M20 173.7c1.4 0 2.3-.8 2.3-1.9 0-1.2-.9-1.9-2.3-1.9h-2.1v3.8H20zm-4-5.5h4.1c2.5 0 4 1.4 4 3.5 0 2.4-1.9 3.6-4.2 3.6h-2.1v3.4H16v-10.5zM32.1 173.4c1.3 0 2.2-.7 2.2-1.8s-.8-1.7-2.2-1.7h-2.7v3.5h2.7zm-4.5-5.2h4.7c1.3 0 2.4.4 3 1.1.6.6.9 1.4.9 2.3 0 1.7-1 2.8-2.5 3.2l2.8 4h-2.2l-2.6-3.7h-2.3v3.7h-1.8v-10.6z"/><path fill="#FFF" d="M39.9 168.2v10.5h7.9v-1.6h-6v-2.8h5.3v-1.7h-5.3v-2.7h5.9v-1.7M59.9 168.2l-3.2 5-3.2-5h-2v10.5h1.8v-7.5l3.3 4.9h.1l3.3-4.9v7.5h1.9v-10.5M66.2 168.2H68v10.5h-1.8z"/><defs><path id="c" d="M0 0h176.6v178.9H0z"/></defs><clipPath id="d"><use xlink:href="#c" overflow="visible"/></clipPath><path clip-path="url(#d)" fill="#FFF" d="M72.2 174.3v-6.1H74v6c0 2 1 3 2.7 3 1.6 0 2.6-1 2.6-2.9v-6.1h1.8v6c0 3.1-1.8 4.7-4.5 4.7s-4.4-1.6-4.4-4.6"/><path fill="#FFF" d="M93.6 168.2l-3.2 5-3.2-5h-2v10.5H87v-7.5l3.3 4.9h.1l3.3-4.9v7.5h1.9v-10.5M113.3 168.2l-3.2 8.1-3.2-8.1h-2l4.4 10.6h1.6l4.4-10.6M121.6 170.4l1.8 4.2h-3.6l1.8-4.2zm-.8-2.3l-4.6 10.6h1.9l1.1-2.5h5l1.1 2.5h2l-4.6-10.6h-1.9zM130.4 168.2v10.5h7.4V177h-5.5v-8.8M141.3 168.2v10.5h7.8v-1.6h-6v-2.8h5.3v-1.7h-5.3v-2.7h6v-1.7M152.1 168.2v1.7h3.3v8.8h1.9v-8.8h3.3v-1.7"/><g><defs><path id="e" d="M0 0h176.6v178.9H0z"/></defs><clipPath id="f"><use xlink:href="#e" overflow="visible"/></clipPath><path clip-path="url(#f)" fill="#FFF" d="M28.7 126.1c0 .4-.1.5-.4.5-1 .1-1.8.3-2.3.7-.5.4-1.1 1.3-1.7 2.7l-8.6 19.6c-.1.2-.2.3-.5.3-.2 0-.4-.1-.4-.3L7.2 130c-.4-1.1-.8-1.8-1.1-2.2-.3-.4-.6-.6-1.1-.8-.5-.2-1.2-.3-2.3-.5-.1 0-.2 0-.2-.1-.1-.1-.1-.2-.1-.3 0-.3.1-.5.2-.5.8 0 1.6 0 2.5.1.9.1 1.7.1 2.4.1s1.6 0 2.6-.1c1.1-.1 2-.1 2.7-.1.2 0 .3.2.3.5s-.1.5-.2.5c-1 0-1.7.2-2.2.4-.4.2-.7.6-.7 1 0 .3.1.8.4 1.5l5.9 15.5 6.1-15.1c.2-.7.3-1.2.3-1.5 0-1.1-1-1.8-3-1.9-.1 0-.2-.2-.2-.5s.1-.5.3-.5c.5 0 1.2 0 2.1.1 1 .1 1.7.1 2.4.1.5 0 1.2 0 2-.1s1.5-.1 2-.1c.3.2.4.3.4.6M45.9 138.8l-3-8.7-3.2 8.7h6.2zm10.3 10.1c0 .3-.1.5-.3.5-.8 0-1.7 0-2.7-.1-.9-.1-1.6-.1-2.2-.1-.7 0-1.6 0-2.6.1-1.1.1-2 .1-2.8.1-.2 0-.3-.2-.3-.5s.1-.5.2-.5c1 0 1.7-.2 2.2-.4.4-.2.7-.6.7-1 0-.3-.1-.8-.3-1.4l-1.9-5.7h-7l-2 5.3c-.2.7-.4 1.3-.4 1.6 0 1 .9 1.6 2.8 1.6.1 0 .2.2.2.5s-.1.5-.3.5c-.7 0-1.4 0-2.3-.1-.8-.1-1.5-.1-2.1-.1-.5 0-1.1 0-1.8.1-.8.1-1.4.1-2 .1-.2 0-.3-.1-.3-.4 0-.3.1-.5.4-.5.9-.1 1.7-.4 2.2-.8.6-.4 1.1-1.3 1.7-2.6l8-19.6c.1-.2.2-.3.5-.3s.4.1.5.3l7 19.6c.4 1.1.9 1.9 1.6 2.4.7.5 1.6.9 2.7 1 .5 0 .6.2.6.4M84.1 143.1c-.5 2-1 4.1-1.3 6.3-4.4-.1-7.5-.2-9.3-.2-1.8 0-4.9.1-9.2.2-.2 0-.3-.2-.3-.5s.1-.4.3-.5c1.4-.2 2.3-.4 2.8-.8s.7-1.1.7-2.1v-16.1c0-.8-.1-1.4-.3-1.7-.2-.3-.5-.6-1-.8-.5-.2-1.2-.3-2.2-.5-.2 0-.3-.2-.3-.5s.1-.5.3-.5c.8 0 1.7 0 2.7.1 1 .1 1.9.1 2.6.1.7 0 1.5 0 2.5-.1s1.9-.1 2.7-.1c.2 0 .3.2.3.5s-.1.5-.3.5c-1 .1-1.7.3-2.2.5-.5.2-.8.4-1 .8-.2.3-.3.9-.3 1.7V146c0 1.3.7 2 2 2h3.4c1.4 0 2.6-.4 3.5-1.1 1-.7 1.9-2.1 2.9-4.2 0-.1.2-.1.3-.1.1 0 .3 0 .4.1.2.2.3.3.3.4M112.8 143.8c-.9 2-1.7 3.8-2.3 5.6-4.3-.1-7.3-.2-9.2-.2-1.8 0-4.8.1-9.1.2-.2 0-.3-.2-.3-.5s.1-.4.3-.5c.9-.1 1.7-.3 2.2-.5.5-.2.8-.4 1.1-.8.2-.3.3-.9.3-1.7v-16.1c0-.8-.1-1.3-.3-1.7-.2-.3-.5-.6-1-.8-.5-.2-1.2-.3-2.2-.5-.2 0-.3-.2-.3-.5s.1-.5.3-.5c2.9.1 5.8.2 8.8.2 3 0 6-.1 8.8-.2.3 1.8.6 3.5 1.1 5.2 0 .2-.2.3-.6.3-.2 0-.3-.1-.4-.2-.8-2.7-2.6-4-5.4-4h-3.4c-1.3 0-2 .7-2 2v7.6h4.3c1.1 0 1.9-.3 2.3-.8.4-.5.7-1.4.8-2.8 0-.2.2-.3.5-.3s.5.1.5.3c0 .6 0 1.3-.1 2.1s-.1 1.5-.1 2 0 1.2.1 2c.1.9.1 1.6.1 2.2 0 .2-.2.3-.5.3s-.5-.1-.5-.3c-.2-1.4-.5-2.4-.9-2.9-.4-.6-1.2-.8-2.3-.8h-4.3v8.4c0 1.3.7 2 2 2h3.7c1.4 0 2.7-.4 4-1.3 1.3-.9 2.3-2 2.9-3.3 0-.1.1-.2.3-.2.2 0 .3 0 .4.1.3.7.4.8.4.9M144.3 131.3c0 .2-.2.3-.6.3-.2 0-.3-.1-.3-.2-.5-1.6-1.2-2.7-2.1-3.4-.9-.7-2.3-1-4-1h-1.6c-.6 0-.9.1-1.1.3-.2.2-.3.5-.3 1v17.3c0 .8.1 1.3.3 1.7.2.3.6.6 1.1.8.5.2 1.2.3 2.2.5.2 0 .3.2.3.5s-.1.5-.3.5c-.8 0-1.7 0-2.7-.1-1-.1-1.8-.1-2.5-.1s-1.6 0-2.6.1c-1.1.1-2 .1-2.7.1-.2 0-.3-.2-.3-.5s.1-.4.3-.5c1.4-.2 2.3-.4 2.8-.8s.7-1.1.7-2.1v-17.3c0-.5-.1-.8-.3-1-.2-.2-.6-.3-1.2-.3h-1.3c-1.6 0-3.1.4-4.4 1.2-1.3.8-2.2 1.9-2.6 3.2-.1.2-.2.3-.4.3-.4 0-.6-.1-.6-.4.6-1.7 1.2-3.7 1.8-5.8 1.5.3 5.1.5 10.6.5 5.7 0 9.3-.2 10.8-.5.1 1.3.4 3.3 1 5.7M163.9 138.8l-3-8.7-3.2 8.7h6.2zm10.3 10.1c0 .3-.1.5-.3.5-.8 0-1.7 0-2.7-.1-.9-.1-1.6-.1-2.2-.1-.7 0-1.6 0-2.6.1-1.1.1-2 .1-2.8.1-.2 0-.3-.2-.3-.5s.1-.5.2-.5c1 0 1.7-.2 2.2-.4.4-.2.7-.6.7-1 0-.3-.1-.8-.3-1.4l-1.9-5.7h-7l-2 5.3c-.2.7-.4 1.3-.4 1.6 0 1 .9 1.6 2.8 1.6.1 0 .2.2.2.5s-.1.5-.3.5c-.7 0-1.4 0-2.3-.1-.8-.1-1.5-.1-2.1-.1-.5 0-1.1 0-1.8.1-.8.1-1.4.1-2 .1-.2 0-.3-.1-.3-.4 0-.3.1-.5.4-.5.9-.1 1.7-.4 2.2-.8.6-.4 1.1-1.3 1.7-2.6l8-19.6c.1-.2.2-.3.5-.3s.4.1.5.3l7 19.6c.4 1.1.9 1.9 1.6 2.4.7.5 1.6.9 2.7 1 .5 0 .6.2.6.4"/></g><path fill="#FFF" d="M0 158h176.6v1.3H0z"/></svg>